<?xml version="1.0" standalone="no"?>
<!DOCTYPE svg PUBLIC "-//W3C//DTD SVG 20010904//EN"
 "http://www.w3.org/TR/2001/REC-SVG-20010904/DTD/svg10.dtd">
<svg version="1.0" xmlns="http://www.w3.org/2000/svg"
 width="114.000000pt" height="100.000000pt" viewBox="0 0 114.000000 100.000000"
 preserveAspectRatio="xMidYMid meet">

<g transform="translate(0.000000,100.000000) scale(0.100000,-0.100000)"
fill="#c4c4c4" stroke="none">
<path d="M515 991 c-78 -20 -151 -77 -188 -146 -17 -32 -22 -57 -22 -125 0
-99 18 -143 85 -206 l40 -38 0 -83 0 -83 -44 0 c-35 0 -45 4 -49 20 -14 54
-175 53 -192 -2 -5 -15 -17 -18 -63 -18 -31 0 -63 -4 -70 -8 -9 -6 -12 -37
-10 -118 l3 -109 68 -3 c37 -2 67 -7 67 -12 0 -6 9 -19 20 -30 28 -28 139 -29
163 -2 10 10 17 24 17 30 0 9 59 12 220 12 178 0 220 -3 220 -13 0 -30 35 -47
98 -47 49 0 66 4 82 20 11 11 20 25 20 30 0 6 32 10 75 10 l76 0 -3 118 -3
117 -67 3 c-59 3 -71 6 -97 32 -25 26 -37 30 -83 30 -56 0 -98 -20 -98 -46 0
-9 -11 -14 -30 -14 l-30 0 0 88 c0 85 1 87 29 106 36 25 78 88 92 141 15 55 6
152 -19 201 -25 49 -88 108 -138 129 -45 19 -129 27 -169 16z m45 -77 c0 -24
5 -34 15 -34 10 0 15 10 15 33 0 19 2 36 5 39 10 9 78 -12 105 -32 l25 -19
-23 -23 c-42 -45 -20 -72 26 -33 34 28 41 24 67 -38 23 -56 20 -65 -22 -69
-53 -4 -52 -32 1 -36 37 -3 38 -4 32 -35 -11 -54 -58 -119 -110 -152 -43 -26
-59 -30 -121 -30 -62 0 -78 4 -121 30 -52 33 -114 120 -114 161 0 19 6 23 38
26 25 2 37 8 37 18 0 10 -12 16 -37 18 -44 4 -47 16 -19 78 24 52 34 58 56 34
20 -22 55 -27 55 -8 0 6 -10 22 -21 35 -18 19 -20 25 -9 38 13 16 100 46 113
38 4 -2 7 -20 7 -39z m15 -469 c28 0 62 3 78 8 l27 7 0 -94 0 -95 48 -3 47 -3
0 -75 0 -75 -215 0 -215 0 0 75 0 75 63 3 62 3 0 95 0 94 28 -7 c15 -5 50 -8
77 -8z m-277 -127 c14 -14 17 -235 3 -256 -5 -9 -25 -12 -62 -10 l-54 3 -3
124 c-1 69 0 131 2 138 7 17 97 18 114 1z m637 -128 l0 -135 -54 -3 c-37 -2
-57 1 -62 10 -14 22 -11 242 3 256 8 8 33 12 63 10 l50 -3 0 -135z m-795 0 l0
-80 -50 0 -50 0 0 80 0 80 50 0 50 0 0 -80z m958 -2 l3 -78 -61 0 -60 0 0 80
0 81 58 -3 57 -3 3 -77z" fill="#c4c4c4"/>
<path d="M412 788 c3 -7 28 -26 56 -41 29 -16 52 -34 52 -41 0 -19 33 -46 57
-46 11 0 27 8 36 18 42 46 -4 118 -59 93 -20 -9 -32 -7 -64 9 -44 23 -84 26
-78 8z m178 -68 c0 -11 -7 -20 -15 -20 -8 0 -15 9 -15 20 0 11 7 20 15 20 8 0
15 -9 15 -20z" fill="#c4c4c4"/>
</g>
</svg>
